<svg xmlns="http://www.w3.org/2000/svg" xmlns:xlink="http://www.w3.org/1999/xlink" version="1.1" class="marks" width="450" height="274" viewBox="0 0 450 274"><rect width="450" height="274" fill="white"/><g fill="none" stroke-miterlimit="10" transform="translate(38,30)"><g class="mark-group role-frame root" role="graphics-object" aria-roledescription="group mark container"><g transform="translate(0,0)"><path class="background" aria-hidden="true" d="M0.5,0.5h300v200h-300Z" stroke="#ddd"/><g><g class="mark-group role-axis" aria-hidden="true"><g transform="translate(0.5,200.5)"><path class="background" aria-hidden="true" d="M0,0h0v0h0Z" pointer-events="none"/><g><g class="mark-rule role-axis-grid" pointer-events="none"><line transform="translate(0,-200)" x2="0" y2="200" stroke="#ddd" stroke-width="1" opacity="1"/><line transform="translate(30,-200)" x2="0" y2="200" stroke="#ddd" stroke-width="1" opacity="1"/><line transform="translate(60,-200)" x2="0" y2="200" stroke="#ddd" stroke-width="1" opacity="1"/><line transform="translate(90,-200)" x2="0" y2="200" stroke="#ddd" stroke-width="1" opacity="1"/><line transform="translate(120,-200)" x2="0" y2="200" stroke="#ddd" stroke-width="1" opacity="1"/><line transform="translate(150,-200)" x2="0" y2="200" stroke="#ddd" stroke-width="1" opacity="1"/><line transform="translate(180,-200)" x2="0" y2="200" stroke="#ddd" stroke-width="1" opacity="1"/><line transform="translate(210,-200)" x2="0" y2="200" stroke="#ddd" stroke-width="1" opacity="1"/><line transform="translate(240,-200)" x2="0" y2="200" stroke="#ddd" stroke-width="1" opacity="1"/><line transform="translate(270,-200)" x2="0" y2="200" stroke="#ddd" stroke-width="1" opacity="1"/><line transform="translate(300,-200)" x2="0" y2="200" stroke="#ddd" stroke-width="1" opacity="1"/></g></g><path class="foreground" aria-hidden="true" d="" pointer-events="none" display="none"/></g></g><g class="mark-group role-axis" aria-hidden="true"><g transform="translate(0.5,0.5)"><path class="background" aria-hidden="true" d="M0,0h0v0h0Z" pointer-events="none"/><g><g class="mark-rule role-axis-grid" pointer-events="none"><line transform="translate(0,200)" x2="300" y2="0" stroke="#ddd" stroke-width="1" opacity="1"/><line transform="translate(0,160)" x2="300" y2="0" stroke="#ddd" stroke-width="1" opacity="1"/><line transform="translate(0,120)" x2="300" y2="0" stroke="#ddd" stroke-width="1" opacity="1"/><line transform="translate(0,80)" x2="300" y2="0" stroke="#ddd" stroke-width="1" opacity="1"/><line transform="translate(0,40)" x2="300" y2="0" stroke="#ddd" stroke-width="1" opacity="1"/><line transform="translate(0,0)" x2="300" y2="0" stroke="#ddd" stroke-width="1" opacity="1"/></g></g><path class="foreground" aria-hidden="true" d="" pointer-events="none" display="none"/></g></g><g class="mark-group role-axis" role="graphics-symbol" aria-roledescription="axis" aria-label="X-axis titled 'Initial Nitrite Concentration (mM)' for a linear scale with values from 0 to 50"><g transform="translate(0.5,200.5)"><path class="background" aria-hidden="true" d="M0,0h0v0h0Z" pointer-events="none"/><g><g class="mark-rule role-axis-tick" pointer-events="none"><line transform="translate(0,0)" x2="0" y2="5" stroke="#888" stroke-width="1" opacity="1"/><line transform="translate(30,0)" x2="0" y2="5" stroke="#888" stroke-width="1" opacity="1"/><line transform="translate(60,0)" x2="0" y2="5" stroke="#888" stroke-width="1" opacity="1"/><line transform="translate(90,0)" x2="0" y2="5" stroke="#888" stroke-width="1" opacity="1"/><line transform="translate(120,0)" x2="0" y2="5" stroke="#888" stroke-width="1" opacity="1"/><line transform="translate(150,0)" x2="0" y2="5" stroke="#888" stroke-width="1" opacity="1"/><line transform="translate(180,0)" x2="0" y2="5" stroke="#888" stroke-width="1" opacity="1"/><line transform="translate(210,0)" x2="0" y2="5" stroke="#888" stroke-width="1" opacity="1"/><line transform="translate(240,0)" x2="0" y2="5" stroke="#888" stroke-width="1" opacity="1"/><line transform="translate(270,0)" x2="0" y2="5" stroke="#888" stroke-width="1" opacity="1"/><line transform="translate(300,0)" x2="0" y2="5" stroke="#888" stroke-width="1" opacity="1"/></g><g class="mark-text role-axis-label" pointer-events="none"><text text-anchor="start" transform="translate(0,18)" font-family="sans-serif" font-size="14px" fill="#000" opacity="1">0</text><text text-anchor="middle" transform="translate(30,18)" font-family="sans-serif" font-size="14px" fill="#000" opacity="1">5</text><text text-anchor="middle" transform="translate(60,18)" font-family="sans-serif" font-size="14px" fill="#000" opacity="1">10</text><text text-anchor="middle" transform="translate(90,18)" font-family="sans-serif" font-size="14px" fill="#000" opacity="1">15</text><text text-anchor="middle" transform="translate(120,18)" font-family="sans-serif" font-size="14px" fill="#000" opacity="1">20</text><text text-anchor="middle" transform="translate(150,18)" font-family="sans-serif" font-size="14px" fill="#000" opacity="1">25</text><text text-anchor="middle" transform="translate(180,18)" font-family="sans-serif" font-size="14px" fill="#000" opacity="1">30</text><text text-anchor="middle" transform="translate(210,18)" font-family="sans-serif" font-size="14px" fill="#000" opacity="1">35</text><text text-anchor="middle" transform="translate(240,18)" font-family="sans-serif" font-size="14px" fill="#000" opacity="1">40</text><text text-anchor="middle" transform="translate(270,18)" font-family="sans-serif" font-size="14px" fill="#000" opacity="1">45</text><text text-anchor="end" transform="translate(300,18)" font-family="sans-serif" font-size="14px" fill="#000" opacity="1">50</text></g><g class="mark-rule role-axis-domain" pointer-events="none"><line transform="translate(0,0)" x2="300" y2="0" stroke="#888" stroke-width="1" opacity="1"/></g><g class="mark-text role-axis-title" pointer-events="none"><text text-anchor="middle" transform="translate(150,36)" font-family="sans-serif" font-size="14px" font-weight="bold" fill="#000" opacity="1">Initial Nitrite Concentration (mM)</text></g></g><path class="foreground" aria-hidden="true" d="" pointer-events="none" display="none"/></g></g><g class="mark-group role-axis" role="graphics-symbol" aria-roledescription="axis" aria-label="Y-axis titled 'Growth Yield (cells/pmol-N)' for a linear scale with values from 0 to 5"><g transform="translate(0.5,0.5)"><path class="background" aria-hidden="true" d="M0,0h0v0h0Z" pointer-events="none"/><g><g class="mark-rule role-axis-tick" pointer-events="none"><line transform="translate(0,200)" x2="-5" y2="0" stroke="#888" stroke-width="1" opacity="1"/><line transform="translate(0,160)" x2="-5" y2="0" stroke="#888" stroke-width="1" opacity="1"/><line transform="translate(0,120)" x2="-5" y2="0" stroke="#888" stroke-width="1" opacity="1"/><line transform="translate(0,80)" x2="-5" y2="0" stroke="#888" stroke-width="1" opacity="1"/><line transform="translate(0,40)" x2="-5" y2="0" stroke="#888" stroke-width="1" opacity="1"/><line transform="translate(0,0)" x2="-5" y2="0" stroke="#888" stroke-width="1" opacity="1"/></g><g class="mark-text role-axis-label" pointer-events="none"><text text-anchor="end" transform="translate(-7,204)" font-family="sans-serif" font-size="14px" fill="#000" opacity="1">0</text><text text-anchor="end" transform="translate(-7,164)" font-family="sans-serif" font-size="14px" fill="#000" opacity="1">1</text><text text-anchor="end" transform="translate(-7,124)" font-family="sans-serif" font-size="14px" fill="#000" opacity="1">2</text><text text-anchor="end" transform="translate(-7,84)" font-family="sans-serif" font-size="14px" fill="#000" opacity="1">3</text><text text-anchor="end" transform="translate(-7,43.99999999999999)" font-family="sans-serif" font-size="14px" fill="#000" opacity="1">4</text><text text-anchor="end" transform="translate(-7,4)" font-family="sans-serif" font-size="14px" fill="#000" opacity="1">5</text></g><g class="mark-rule role-axis-domain" pointer-events="none"><line transform="translate(0,200)" x2="0" y2="-200" stroke="#888" stroke-width="1" opacity="1"/></g><g class="mark-text role-axis-title" pointer-events="none"><text text-anchor="middle" transform="translate(-18.7861328125,100) rotate(-90) translate(0,-3)" font-family="sans-serif" font-size="14px" font-weight="bold" fill="#000" opacity="1">Growth Yield (cells/pmol-N)</text></g></g><path class="foreground" aria-hidden="true" d="" pointer-events="none" display="none"/></g></g><g class="mark-symbol role-mark layer_0_marks" role="graphics-object" aria-roledescription="symbol mark container"><path aria-label="Initial Nitrite Concentration (mM): 1; Growth Yield (cells/pmol-N): 4.07933349264; Strain: MLSD-S22" role="graphics-symbol" aria-roledescription="point" transform="translate(6,36.826660294536005)" d="M2.739,0A2.739,2.739,0,1,1,-2.739,0A2.739,2.739,0,1,1,2.739,0" stroke="#4c78a8" stroke-width="2" opacity="0.7"/><path aria-label="Initial Nitrite Concentration (mM): 1; Growth Yield (cells/pmol-N): 3.99668917423; Strain: MLSD-S22" role="graphics-symbol" aria-roledescription="point" transform="translate(6,40.13243303094456)" d="M2.739,0A2.739,2.739,0,1,1,-2.739,0A2.739,2.739,0,1,1,2.739,0" stroke="#4c78a8" stroke-width="2" opacity="0.7"/><path aria-label="Initial Nitrite Concentration (mM): 1; Growth Yield (cells/pmol-N): 3.94762982045; Strain: MLSD-S22" role="graphics-symbol" aria-roledescription="point" transform="translate(6,42.09480718184027)" d="M2.739,0A2.739,2.739,0,1,1,-2.739,0A2.739,2.739,0,1,1,2.739,0" stroke="#4c78a8" stroke-width="2" opacity="0.7"/><path aria-label="Initial Nitrite Concentration (mM): 1; Growth Yield (cells/pmol-N): 3.31336092191; Strain: MLSD-S22" role="graphics-symbol" aria-roledescription="point" transform="translate(6,67.46556312375023)" d="M2.739,0A2.739,2.739,0,1,1,-2.739,0A2.739,2.739,0,1,1,2.739,0" stroke="#4c78a8" stroke-width="2" opacity="0.7"/><path aria-label="Initial Nitrite Concentration (mM): 1; Growth Yield (cells/pmol-N): 3.50078338176; Strain: MLSD-S22" role="graphics-symbol" aria-roledescription="point" transform="translate(6,59.968664729417355)" d="M2.739,0A2.739,2.739,0,1,1,-2.739,0A2.739,2.739,0,1,1,2.739,0" stroke="#4c78a8" stroke-width="2" opacity="0.7"/><path aria-label="Initial Nitrite Concentration (mM): 1; Growth Yield (cells/pmol-N): 3.34617166191; Strain: MLSD-S22" role="graphics-symbol" aria-roledescription="point" transform="translate(6,66.15313352366456)" d="M2.739,0A2.739,2.739,0,1,1,-2.739,0A2.739,2.739,0,1,1,2.739,0" stroke="#4c78a8" stroke-width="2" opacity="0.7"/><path aria-label="Initial Nitrite Concentration (mM): 2; Growth Yield (cells/pmol-N): 3.21621187466; Strain: MLSD-S22" role="graphics-symbol" aria-roledescription="point" transform="translate(12,71.35152501348698)" d="M2.739,0A2.739,2.739,0,1,1,-2.739,0A2.739,2.739,0,1,1,2.739,0" stroke="#4c78a8" stroke-width="2" opacity="0.7"/><path aria-label="Initial Nitrite Concentration (mM): 2; Growth Yield (cells/pmol-N): 3.24259730031; Strain: MLSD-S22" role="graphics-symbol" aria-roledescription="point" transform="translate(12,70.29610798756569)" d="M2.739,0A2.739,2.739,0,1,1,-2.739,0A2.739,2.739,0,1,1,2.739,0" stroke="#4c78a8" stroke-width="2" opacity="0.7"/><path aria-label="Initial Nitrite Concentration (mM): 2; Growth Yield (cells/pmol-N): 3.24189113431; Strain: MLSD-S22" role="graphics-symbol" aria-roledescription="point" transform="translate(12,70.32435462775742)" d="M2.739,0A2.739,2.739,0,1,1,-2.739,0A2.739,2.739,0,1,1,2.739,0" stroke="#4c78a8" stroke-width="2" opacity="0.7"/><path aria-label="Initial Nitrite Concentration (mM): 2; Growth Yield (cells/pmol-N): 3.00668365145; Strain: MLSD-S22" role="graphics-symbol" aria-roledescription="point" transform="translate(12,79.73265394195406)" d="M2.739,0A2.739,2.739,0,1,1,-2.739,0A2.739,2.739,0,1,1,2.739,0" stroke="#4c78a8" stroke-width="2" opacity="0.7"/><path aria-label="Initial Nitrite Concentration (mM): 2; Growth Yield (cells/pmol-N): 3.07637303525; Strain: MLSD-S22" role="graphics-symbol" aria-roledescription="point" transform="translate(12,76.9450785898965)" d="M2.739,0A2.739,2.739,0,1,1,-2.739,0A2.739,2.739,0,1,1,2.739,0" stroke="#4c78a8" stroke-width="2" opacity="0.7"/><path aria-label="Initial Nitrite Concentration (mM): 2; Growth Yield (cells/pmol-N): 3.1713883012; Strain: MLSD-S22" role="graphics-symbol" aria-roledescription="point" transform="translate(12,73.14446795210418)" d="M2.739,0A2.739,2.739,0,1,1,-2.739,0A2.739,2.739,0,1,1,2.739,0" stroke="#4c78a8" stroke-width="2" opacity="0.7"/><path aria-label="Initial Nitrite Concentration (mM): 10; Growth Yield (cells/pmol-N): 3.70601061058; Strain: MLSD-S22" role="graphics-symbol" aria-roledescription="point" transform="translate(60,51.759575576909846)" d="M2.739,0A2.739,2.739,0,1,1,-2.739,0A2.739,2.739,0,1,1,2.739,0" stroke="#4c78a8" stroke-width="2" opacity="0.7"/><path aria-label="Initial Nitrite Concentration (mM): 10; Growth Yield (cells/pmol-N): 3.5295732739; Strain: MLSD-S22" role="graphics-symbol" aria-roledescription="point" transform="translate(60,58.817069043976964)" d="M2.739,0A2.739,2.739,0,1,1,-2.739,0A2.739,2.739,0,1,1,2.739,0" stroke="#4c78a8" stroke-width="2" opacity="0.7"/><path aria-label="Initial Nitrite Concentration (mM): 10; Growth Yield (cells/pmol-N): 3.4945075648; Strain: MLSD-S22" role="graphics-symbol" aria-roledescription="point" transform="translate(60,60.219697407908356)" d="M2.739,0A2.739,2.739,0,1,1,-2.739,0A2.739,2.739,0,1,1,2.739,0" stroke="#4c78a8" stroke-width="2" opacity="0.7"/><path aria-label="Initial Nitrite Concentration (mM): 25; Growth Yield (cells/pmol-N): 2.30602202625; Strain: MLSD-S22" role="graphics-symbol" aria-roledescription="point" transform="translate(150,107.7591189498199)" d="M2.739,0A2.739,2.739,0,1,1,-2.739,0A2.739,2.739,0,1,1,2.739,0" stroke="#4c78a8" stroke-width="2" opacity="0.7"/><path aria-label="Initial Nitrite Concentration (mM): 25; Growth Yield (cells/pmol-N): 2.12860123133; Strain: MLSD-S22" role="graphics-symbol" aria-roledescription="point" transform="translate(150,114.85595074698122)" d="M2.739,0A2.739,2.739,0,1,1,-2.739,0A2.739,2.739,0,1,1,2.739,0" stroke="#4c78a8" stroke-width="2" opacity="0.7"/><path aria-label="Initial Nitrite Concentration (mM): 25; Growth Yield (cells/pmol-N): 2.21593180365; Strain: MLSD-S22" role="graphics-symbol" aria-roledescription="point" transform="translate(150,111.36272785416561)" d="M2.739,0A2.739,2.739,0,1,1,-2.739,0A2.739,2.739,0,1,1,2.739,0" stroke="#4c78a8" stroke-width="2" opacity="0.7"/><path aria-label="Initial Nitrite Concentration (mM): 1; Growth Yield (cells/pmol-N): 3.57596117131; Strain: Strain-Z" role="graphics-symbol" aria-roledescription="point" transform="translate(6,56.96155314779219)" d="M2.739,0A2.739,2.739,0,1,1,-2.739,0A2.739,2.739,0,1,1,2.739,0" stroke="#f58518" stroke-width="2" opacity="0.7"/><path aria-label="Initial Nitrite Concentration (mM): 1; Growth Yield (cells/pmol-N): 3.09750361111; Strain: Strain-Z" role="graphics-symbol" aria-roledescription="point" transform="translate(6,76.09985555576264)" d="M2.739,0A2.739,2.739,0,1,1,-2.739,0A2.739,2.739,0,1,1,2.739,0" stroke="#f58518" stroke-width="2" opacity="0.7"/><path aria-label="Initial Nitrite Concentration (mM): 1; Growth Yield (cells/pmol-N): 3.55975007592; Strain: Strain-Z" role="graphics-symbol" aria-roledescription="point" transform="translate(6,57.60999696332738)" d="M2.739,0A2.739,2.739,0,1,1,-2.739,0A2.739,2.739,0,1,1,2.739,0" stroke="#f58518" stroke-width="2" opacity="0.7"/><path aria-label="Initial Nitrite Concentration (mM): 1; Growth Yield (cells/pmol-N): 3.94389120838; Strain: Strain-Z" role="graphics-symbol" aria-roledescription="point" transform="translate(6,42.244351664642)" d="M2.739,0A2.739,2.739,0,1,1,-2.739,0A2.739,2.739,0,1,1,2.739,0" stroke="#f58518" stroke-width="2" opacity="0.7"/><path aria-label="Initial Nitrite Concentration (mM): 1; Growth Yield (cells/pmol-N): 3.92780971412; Strain: Strain-Z" role="graphics-symbol" aria-roledescription="point" transform="translate(6,42.88761143525057)" d="M2.739,0A2.739,2.739,0,1,1,-2.739,0A2.739,2.739,0,1,1,2.739,0" stroke="#f58518" stroke-width="2" opacity="0.7"/><path aria-label="Initial Nitrite Concentration (mM): 1; Growth Yield (cells/pmol-N): 3.70726978971; Strain: Strain-Z" role="graphics-symbol" aria-roledescription="point" transform="translate(6,51.70920841142732)" d="M2.739,0A2.739,2.739,0,1,1,-2.739,0A2.739,2.739,0,1,1,2.739,0" stroke="#f58518" stroke-width="2" opacity="0.7"/><path aria-label="Initial Nitrite Concentration (mM): 2; Growth Yield (cells/pmol-N): 2.97128126237; Strain: Strain-Z" role="graphics-symbol" aria-roledescription="point" transform="translate(12,81.14874950538852)" d="M2.739,0A2.739,2.739,0,1,1,-2.739,0A2.739,2.739,0,1,1,2.739,0" stroke="#f58518" stroke-width="2" opacity="0.7"/><path aria-label="Initial Nitrite Concentration (mM): 2; Growth Yield (cells/pmol-N): 2.86959096963; Strain: Strain-Z" role="graphics-symbol" aria-roledescription="point" transform="translate(12,85.21636121485014)" d="M2.739,0A2.739,2.739,0,1,1,-2.739,0A2.739,2.739,0,1,1,2.739,0" stroke="#f58518" stroke-width="2" opacity="0.7"/><path aria-label="Initial Nitrite Concentration (mM): 2; Growth Yield (cells/pmol-N): 2.90777597707; Strain: Strain-Z" role="graphics-symbol" aria-roledescription="point" transform="translate(12,83.68896091723595)" d="M2.739,0A2.739,2.739,0,1,1,-2.739,0A2.739,2.739,0,1,1,2.739,0" stroke="#f58518" stroke-width="2" opacity="0.7"/><path aria-label="Initial Nitrite Concentration (mM): 10; Growth Yield (cells/pmol-N): 3.24711184017; Strain: Strain-Z" role="graphics-symbol" aria-roledescription="point" transform="translate(60,70.1155263933673)" d="M2.739,0A2.739,2.739,0,1,1,-2.739,0A2.739,2.739,0,1,1,2.739,0" stroke="#f58518" stroke-width="2" opacity="0.7"/><path aria-label="Initial Nitrite Concentration (mM): 10; Growth Yield (cells/pmol-N): 3.41320819641; Strain: Strain-Z" role="graphics-symbol" aria-roledescription="point" transform="translate(60,63.471672143556866)" d="M2.739,0A2.739,2.739,0,1,1,-2.739,0A2.739,2.739,0,1,1,2.739,0" stroke="#f58518" stroke-width="2" opacity="0.7"/><path aria-label="Initial Nitrite Concentration (mM): 10; Growth Yield (cells/pmol-N): 3.57249494666; Strain: Strain-Z" role="graphics-symbol" aria-roledescription="point" transform="translate(60,57.10020213370861)" d="M2.739,0A2.739,2.739,0,1,1,-2.739,0A2.739,2.739,0,1,1,2.739,0" stroke="#f58518" stroke-width="2" opacity="0.7"/><path aria-label="Initial Nitrite Concentration (mM): 25; Growth Yield (cells/pmol-N): 2.96250004631; Strain: Strain-Z" role="graphics-symbol" aria-roledescription="point" transform="translate(150,81.49999814764341)" d="M2.739,0A2.739,2.739,0,1,1,-2.739,0A2.739,2.739,0,1,1,2.739,0" stroke="#f58518" stroke-width="2" opacity="0.7"/><path aria-label="Initial Nitrite Concentration (mM): 25; Growth Yield (cells/pmol-N): 2.89338698438; Strain: Strain-Z" role="graphics-symbol" aria-roledescription="point" transform="translate(150,84.26452062484692)" d="M2.739,0A2.739,2.739,0,1,1,-2.739,0A2.739,2.739,0,1,1,2.739,0" stroke="#f58518" stroke-width="2" opacity="0.7"/><path aria-label="Initial Nitrite Concentration (mM): 25; Growth Yield (cells/pmol-N): 2.90205235236; Strain: Strain-Z" role="graphics-symbol" aria-roledescription="point" transform="translate(150,83.91790590540866)" d="M2.739,0A2.739,2.739,0,1,1,-2.739,0A2.739,2.739,0,1,1,2.739,0" stroke="#f58518" stroke-width="2" opacity="0.7"/><path aria-label="Initial Nitrite Concentration (mM): 50; Growth Yield (cells/pmol-N): 1.59860730949; Strain: Strain-Z" role="graphics-symbol" aria-roledescription="point" transform="translate(300,136.05570762055825)" d="M2.739,0A2.739,2.739,0,1,1,-2.739,0A2.739,2.739,0,1,1,2.739,0" stroke="#f58518" stroke-width="2" opacity="0.7"/><path aria-label="Initial Nitrite Concentration (mM): 50; Growth Yield (cells/pmol-N): 1.44807352558; Strain: Strain-Z" role="graphics-symbol" aria-roledescription="point" transform="translate(300,142.0770589769785)" d="M2.739,0A2.739,2.739,0,1,1,-2.739,0A2.739,2.739,0,1,1,2.739,0" stroke="#f58518" stroke-width="2" opacity="0.7"/><path aria-label="Initial Nitrite Concentration (mM): 50; Growth Yield (cells/pmol-N): 1.15195132891; Strain: Strain-Z" role="graphics-symbol" aria-roledescription="point" transform="translate(300,153.92194684360706)" d="M2.739,0A2.739,2.739,0,1,1,-2.739,0A2.739,2.739,0,1,1,2.739,0" stroke="#f58518" stroke-width="2" opacity="0.7"/></g><g class="mark-group role-scope layer_1_pathgroup" role="graphics-object" aria-roledescription="group mark container"><g transform="translate(0,0)"><path class="background" aria-hidden="true" d="M0,0h300v200h-300Z"/><g><g class="mark-line role-mark layer_1_marks" role="graphics-object" aria-roledescription="line mark container"><path aria-label="Initial Nitrite Concentration (mM): 1; Growth Yield (cells/pmol-N): 3.53421850108; Strain: MLSD-S22" role="graphics-symbol" aria-roledescription="line mark" d="M6,58.631L150,105.225" stroke="#4c78a8" stroke-width="2"/></g></g><path class="foreground" aria-hidden="true" d="" display="none"/></g><g transform="translate(0,0)"><path class="background" aria-hidden="true" d="M0,0h300v200h-300Z"/><g><g class="mark-line role-mark layer_1_marks" role="graphics-object" aria-roledescription="line mark container"><path aria-label="Initial Nitrite Concentration (mM): 1; Growth Yield (cells/pmol-N): 3.53336883478; Strain: Strain-Z" role="graphics-symbol" aria-roledescription="line mark" d="M6,58.665L300,136.203" stroke="#f58518" stroke-width="2"/></g></g><path class="foreground" aria-hidden="true" d="" display="none"/></g></g><g class="mark-group role-legend" role="graphics-symbol" aria-roledescription="legend" aria-label="Symbol legend titled 'Strain' for stroke color with 2 values: MLSD-S22, Strain-Z"><g transform="translate(320,0)"><path class="background" aria-hidden="true" d="M0,0h87v49h-87Z" pointer-events="none"/><g><g class="mark-group role-legend-entry"><g transform="translate(0,19)"><path class="background" aria-hidden="true" d="M0,0h0v0h0Z" pointer-events="none"/><g><g class="mark-group role-scope" role="graphics-object" aria-roledescription="group mark container"><g transform="translate(0,0)"><path class="background" aria-hidden="true" d="M0,0h86.46875v14h-86.46875Z" pointer-events="none" opacity="1"/><g><g class="mark-symbol role-legend-symbol" pointer-events="none"><path transform="translate(7,7)" d="M5,0A5,5,0,1,1,-5,0A5,5,0,1,1,5,0" stroke="#4c78a8" stroke-width="1.5" opacity="0.7"/></g><g class="mark-text role-legend-label" pointer-events="none"><text text-anchor="start" transform="translate(18,11)" font-family="sans-serif" font-size="14px" fill="#000" opacity="1">MLSD-S22</text></g></g><path class="foreground" aria-hidden="true" d="" pointer-events="none" display="none"/></g><g transform="translate(0,16)"><path class="background" aria-hidden="true" d="M0,0h86.46875v14h-86.46875Z" pointer-events="none" opacity="1"/><g><g class="mark-symbol role-legend-symbol" pointer-events="none"><path transform="translate(7,7)" d="M5,0A5,5,0,1,1,-5,0A5,5,0,1,1,5,0" stroke="#f58518" stroke-width="1.5" opacity="0.7"/></g><g class="mark-text role-legend-label" pointer-events="none"><text text-anchor="start" transform="translate(18,11)" font-family="sans-serif" font-size="14px" fill="#000" opacity="1">Strain-Z</text></g></g><path class="foreground" aria-hidden="true" d="" pointer-events="none" display="none"/></g></g></g><path class="foreground" aria-hidden="true" d="" pointer-events="none" display="none"/></g></g><g class="mark-text role-legend-title" pointer-events="none"><text text-anchor="start" transform="translate(0,11)" font-family="sans-serif" font-size="14px" font-weight="bold" fill="#000" opacity="1">Strain</text></g></g><path class="foreground" aria-hidden="true" d="" pointer-events="none" display="none"/></g></g><g class="mark-group role-title"><g transform="translate(150,-25)"><path class="background" aria-hidden="true" d="M0,0h0v0h0Z" pointer-events="none"/><g><g class="mark-text role-title-text" role="graphics-symbol" aria-roledescription="title" aria-label="Title text 'Growth Yield Dependence on Nitrite'" pointer-events="none"><text text-anchor="middle" transform="translate(0,11)" font-family="sans-serif" font-size="14px" font-weight="bold" fill="#000" opacity="1">Growth Yield Dependence on Nitrite</text></g></g><path class="foreground" aria-hidden="true" d="" pointer-events="none" display="none"/></g></g></g><path class="foreground" aria-hidden="true" d="" display="none"/></g></g></g></svg>