<svg xmlns="http://www.w3.org/2000/svg" xmlns:xlink="http://www.w3.org/1999/xlink" version="1.1" class="marks" width="277" height="707" viewBox="0 0 277 707"><rect width="277" height="707" fill="white"/><g fill="none" stroke-miterlimit="10" transform="translate(71,25)"><g class="mark-group role-frame root" role="graphics-object" aria-roledescription="group mark container"><g transform="translate(0,0)"><path class="background" aria-hidden="true" d="M0,0h200v0h-200Z"/><g><g class="mark-group role-scope concat_0_group" role="graphics-object" aria-roledescription="group mark container"><g transform="translate(0,0)"><path class="background" aria-hidden="true" d="M0.5,0.5h200v150h-200Z" stroke="#ddd"/><g><g class="mark-group role-axis" aria-hidden="true"><g transform="translate(0.5,0.5)"><path class="background" aria-hidden="true" d="M0,0h0v0h0Z" pointer-events="none"/><g><g class="mark-rule role-axis-grid" pointer-events="none"><line transform="translate(0,150)" x2="200" y2="0" stroke="#ddd" stroke-width="1" opacity="1"/><line transform="translate(0,107)" x2="200" y2="0" stroke="#ddd" stroke-width="1" opacity="1"/><line transform="translate(0,64)" x2="200" y2="0" stroke="#ddd" stroke-width="1" opacity="1"/><line transform="translate(0,21)" x2="200" y2="0" stroke="#ddd" stroke-width="1" opacity="1"/></g></g><path class="foreground" aria-hidden="true" d="" pointer-events="none" display="none"/></g></g><g class="mark-group role-axis" role="graphics-symbol" aria-roledescription="axis" aria-label="X-axis for a discrete scale with 3 values: N. vulgaris MLSD-S22, N. vulgaris Z, N. winogradskyi Nb-255"><g transform="translate(0.5,150.5)"><path class="background" aria-hidden="true" d="M0,0h0v0h0Z" pointer-events="none"/><g><g class="mark-rule role-axis-tick" pointer-events="none"><line transform="translate(33,0)" x2="0" y2="5" stroke="#888" stroke-width="1" opacity="1"/><line transform="translate(100,0)" x2="0" y2="5" stroke="#888" stroke-width="1" opacity="1"/><line transform="translate(167,0)" x2="0" y2="5" stroke="#888" stroke-width="1" opacity="1"/></g><g class="mark-rule role-axis-domain" pointer-events="none"><line transform="translate(0,0)" x2="200" y2="0" stroke="#888" stroke-width="1" opacity="1"/></g></g><path class="foreground" aria-hidden="true" d="" pointer-events="none" display="none"/></g></g><g class="mark-group role-axis" role="graphics-symbol" aria-roledescription="axis" aria-label="Y-axis titled 'Nitrite (μM)' for a linear scale with values from 0 to 35"><g transform="translate(0.5,0.5)"><path class="background" aria-hidden="true" d="M0,0h0v0h0Z" pointer-events="none"/><g><g class="mark-rule role-axis-tick" pointer-events="none"><line transform="translate(0,150)" x2="-5" y2="0" stroke="#888" stroke-width="1" opacity="1"/><line transform="translate(0,107)" x2="-5" y2="0" stroke="#888" stroke-width="1" opacity="1"/><line transform="translate(0,64)" x2="-5" y2="0" stroke="#888" stroke-width="1" opacity="1"/><line transform="translate(0,21)" x2="-5" y2="0" stroke="#888" stroke-width="1" opacity="1"/></g><g class="mark-text role-axis-label" pointer-events="none"><text text-anchor="end" transform="translate(-7,154)" font-family="sans-serif" font-size="14px" fill="#000" opacity="1">0</text><text text-anchor="end" transform="translate(-7,111.14285714285714)" font-family="sans-serif" font-size="14px" fill="#000" opacity="1">10</text><text text-anchor="end" transform="translate(-7,68.28571428571429)" font-family="sans-serif" font-size="14px" fill="#000" opacity="1">20</text><text text-anchor="end" transform="translate(-7,25.428571428571434)" font-family="sans-serif" font-size="14px" fill="#000" opacity="1">30</text></g><g class="mark-rule role-axis-domain" pointer-events="none"><line transform="translate(0,150)" x2="0" y2="-150" stroke="#888" stroke-width="1" opacity="1"/></g><g class="mark-text role-axis-title" pointer-events="none"><text text-anchor="middle" transform="translate(-26.572265625,75) rotate(-90) translate(0,-3)" font-family="sans-serif" font-size="14px" font-weight="bold" fill="#000" opacity="1">Nitrite (μM)</text></g></g><path class="foreground" aria-hidden="true" d="" pointer-events="none" display="none"/></g></g><g class="mark-rect role-mark concat_0_layer_0_marks" role="graphics-object" aria-roledescription="rect mark container"><path aria-label="Organism: N. vulgaris Z; Nitrite (μM): 12.6788648005" role="graphics-symbol" aria-roledescription="tick" d="M90,95.16200799773608h20v1h-20Z" fill="black"/><path aria-label="Organism: N. vulgaris MLSD-S22; Nitrite (μM): 13.3488414851" role="graphics-symbol" aria-roledescription="tick" d="M23.33333333333333,92.29067934964195h20v1h-20Z" fill="black"/><path aria-label="Organism: N. winogradskyi Nb-255; Nitrite (μM): 25.6836170789" role="graphics-symbol" aria-roledescription="tick" d="M156.66666666666669,39.427355376014695h20v1h-20Z" fill="black"/></g><g class="mark-symbol role-mark concat_0_layer_1_marks" role="graphics-object" aria-roledescription="symbol mark container"><path aria-label="Organism: N. vulgaris Z; Nitrite (μM): 12.5492470472" role="graphics-symbol" aria-roledescription="point" transform="translate(100,96.21751265477111)" d="M2.236,0A2.236,2.236,0,1,1,-2.236,0A2.236,2.236,0,1,1,2.236,0" stroke="#4c78a8" stroke-width="2" opacity="0.7"/><path aria-label="Organism: N. vulgaris Z; Nitrite (μM): 18.1519843334" role="graphics-symbol" aria-roledescription="point" transform="translate(100,72.20578142814131)" d="M2.236,0A2.236,2.236,0,1,1,-2.236,0A2.236,2.236,0,1,1,2.236,0" stroke="#4c78a8" stroke-width="2" opacity="0.7"/><path aria-label="Organism: N. vulgaris Z; Nitrite (μM): 13.315989133" role="graphics-symbol" aria-roledescription="point" transform="translate(100,92.93147514423173)" d="M2.236,0A2.236,2.236,0,1,1,-2.236,0A2.236,2.236,0,1,1,2.236,0" stroke="#4c78a8" stroke-width="2" opacity="0.7"/><path aria-label="Organism: N. vulgaris Z; Nitrite (μM): 12.0538700434" role="graphics-symbol" aria-roledescription="point" transform="translate(100,98.34055695706905)" d="M2.236,0A2.236,2.236,0,1,1,-2.236,0A2.236,2.236,0,1,1,2.236,0" stroke="#4c78a8" stroke-width="2" opacity="0.7"/><path aria-label="Organism: N. vulgaris Z; Nitrite (μM): 10.04613639" role="graphics-symbol" aria-roledescription="point" transform="translate(100,106.94512975696472)" d="M2.236,0A2.236,2.236,0,1,1,-2.236,0A2.236,2.236,0,1,1,2.236,0" stroke="#4c78a8" stroke-width="2" opacity="0.7"/><path aria-label="Organism: N. vulgaris Z; Nitrite (μM): 9.95596185611" role="graphics-symbol" aria-roledescription="point" transform="translate(100,107.33159204523851)" d="M2.236,0A2.236,2.236,0,1,1,-2.236,0A2.236,2.236,0,1,1,2.236,0" stroke="#4c78a8" stroke-width="2" opacity="0.7"/><path aria-label="Organism: N. vulgaris MLSD-S22; Nitrite (μM): 11.3616155007" role="graphics-symbol" aria-roledescription="point" transform="translate(33.33333333333333,101.3073621397376)" d="M2.236,0A2.236,2.236,0,1,1,-2.236,0A2.236,2.236,0,1,1,2.236,0" stroke="#4c78a8" stroke-width="2" opacity="0.7"/><path aria-label="Organism: N. vulgaris MLSD-S22; Nitrite (μM): 14.6616715029" role="graphics-symbol" aria-roledescription="point" transform="translate(33.33333333333333,87.16426498775563)" d="M2.236,0A2.236,2.236,0,1,1,-2.236,0A2.236,2.236,0,1,1,2.236,0" stroke="#4c78a8" stroke-width="2" opacity="0.7"/><path aria-label="Organism: N. vulgaris MLSD-S22; Nitrite (μM): 14.959208988" role="graphics-symbol" aria-roledescription="point" transform="translate(33.33333333333333,85.88910433714918)" d="M2.236,0A2.236,2.236,0,1,1,-2.236,0A2.236,2.236,0,1,1,2.236,0" stroke="#4c78a8" stroke-width="2" opacity="0.7"/><path aria-label="Organism: N. vulgaris MLSD-S22; Nitrite (μM): 12.7293091565" role="graphics-symbol" aria-roledescription="point" transform="translate(33.33333333333333,95.4458179005236)" d="M2.236,0A2.236,2.236,0,1,1,-2.236,0A2.236,2.236,0,1,1,2.236,0" stroke="#4c78a8" stroke-width="2" opacity="0.7"/><path aria-label="Organism: N. vulgaris MLSD-S22; Nitrite (μM): 13.0281966611" role="graphics-symbol" aria-roledescription="point" transform="translate(33.33333333333333,94.16487145228352)" d="M2.236,0A2.236,2.236,0,1,1,-2.236,0A2.236,2.236,0,1,1,2.236,0" stroke="#4c78a8" stroke-width="2" opacity="0.7"/><path aria-label="Organism: N. vulgaris MLSD-S22; Nitrite (μM): 13.3530471012" role="graphics-symbol" aria-roledescription="point" transform="translate(33.33333333333333,92.7726552804021)" d="M2.236,0A2.236,2.236,0,1,1,-2.236,0A2.236,2.236,0,1,1,2.236,0" stroke="#4c78a8" stroke-width="2" opacity="0.7"/><path aria-label="Organism: N. winogradskyi Nb-255; Nitrite (μM): 20.0051557438" role="graphics-symbol" aria-roledescription="point" transform="translate(166.66666666666669,64.26361824085879)" d="M2.236,0A2.236,2.236,0,1,1,-2.236,0A2.236,2.236,0,1,1,2.236,0" stroke="#4c78a8" stroke-width="2" opacity="0.7"/><path aria-label="Organism: N. winogradskyi Nb-255; Nitrite (μM): 21.4765731463" role="graphics-symbol" aria-roledescription="point" transform="translate(166.66666666666669,57.957543658712325)" d="M2.236,0A2.236,2.236,0,1,1,-2.236,0A2.236,2.236,0,1,1,2.236,0" stroke="#4c78a8" stroke-width="2" opacity="0.7"/><path aria-label="Organism: N. winogradskyi Nb-255; Nitrite (μM): 26.7925869326" role="graphics-symbol" aria-roledescription="point" transform="translate(166.66666666666669,35.17462743172874)" d="M2.236,0A2.236,2.236,0,1,1,-2.236,0A2.236,2.236,0,1,1,2.236,0" stroke="#4c78a8" stroke-width="2" opacity="0.7"/><path aria-label="Organism: N. winogradskyi Nb-255; Nitrite (μM): 34.2806712043" role="graphics-symbol" aria-roledescription="point" transform="translate(166.66666666666669,3.0828376959817883)" d="M2.236,0A2.236,2.236,0,1,1,-2.236,0A2.236,2.236,0,1,1,2.236,0" stroke="#4c78a8" stroke-width="2" opacity="0.7"/><path aria-label="Organism: N. winogradskyi Nb-255; Nitrite (μM): 20.3310005816" role="graphics-symbol" aria-roledescription="point" transform="translate(166.66666666666669,62.867140364768574)" d="M2.236,0A2.236,2.236,0,1,1,-2.236,0A2.236,2.236,0,1,1,2.236,0" stroke="#4c78a8" stroke-width="2" opacity="0.7"/><path aria-label="Organism: N. winogradskyi Nb-255; Nitrite (μM): 24.6832041061" role="graphics-symbol" aria-roledescription="point" transform="translate(166.66666666666669,44.214839545247024)" d="M2.236,0A2.236,2.236,0,1,1,-2.236,0A2.236,2.236,0,1,1,2.236,0" stroke="#4c78a8" stroke-width="2" opacity="0.7"/><path aria-label="Organism: N. winogradskyi Nb-255; Nitrite (μM): 25.3923363959" role="graphics-symbol" aria-roledescription="point" transform="translate(166.66666666666669,41.17570116022714)" d="M2.236,0A2.236,2.236,0,1,1,-2.236,0A2.236,2.236,0,1,1,2.236,0" stroke="#4c78a8" stroke-width="2" opacity="0.7"/><path aria-label="Organism: N. winogradskyi Nb-255; Nitrite (μM): 32.5074085209" role="graphics-symbol" aria-roledescription="point" transform="translate(166.66666666666669,10.682534910593072)" d="M2.236,0A2.236,2.236,0,1,1,-2.236,0A2.236,2.236,0,1,1,2.236,0" stroke="#4c78a8" stroke-width="2" opacity="0.7"/></g><g class="mark-group role-title"><g transform="translate(100,-18.153230281518002)"><path class="background" aria-hidden="true" d="M0,0h0v0h0Z" pointer-events="none"/><g><g class="mark-text role-title-text" role="graphics-symbol" aria-roledescription="title" aria-label="Title text 'Nitrite Affinity'" pointer-events="none"><text text-anchor="middle" transform="translate(0,10)" font-family="sans-serif" font-size="13px" font-weight="bold" fill="#000" opacity="1">Nitrite Affinity</text></g></g><path class="foreground" aria-hidden="true" d="" pointer-events="none" display="none"/></g></g></g><path class="foreground" aria-hidden="true" d="" display="none"/></g></g><g class="mark-group role-scope concat_1_group" role="graphics-object" aria-roledescription="group mark container"><g transform="translate(0,201)"><path class="background" aria-hidden="true" d="M0.5,0.5h200v150h-200Z" stroke="#ddd"/><g><g class="mark-group role-axis" aria-hidden="true"><g transform="translate(0.5,0.5)"><path class="background" aria-hidden="true" d="M0,0h0v0h0Z" pointer-events="none"/><g><g class="mark-rule role-axis-grid" pointer-events="none"><line transform="translate(0,150)" x2="200" y2="0" stroke="#ddd" stroke-width="1" opacity="1"/><line transform="translate(0,123)" x2="200" y2="0" stroke="#ddd" stroke-width="1" opacity="1"/><line transform="translate(0,95)" x2="200" y2="0" stroke="#ddd" stroke-width="1" opacity="1"/><line transform="translate(0,68)" x2="200" y2="0" stroke="#ddd" stroke-width="1" opacity="1"/><line transform="translate(0,41)" x2="200" y2="0" stroke="#ddd" stroke-width="1" opacity="1"/><line transform="translate(0,14)" x2="200" y2="0" stroke="#ddd" stroke-width="1" opacity="1"/></g></g><path class="foreground" aria-hidden="true" d="" pointer-events="none" display="none"/></g></g><g class="mark-group role-axis" role="graphics-symbol" aria-roledescription="axis" aria-label="X-axis for a discrete scale with 3 values: N. vulgaris MLSD-S22, N. vulgaris Z, N. winogradskyi Nb-255"><g transform="translate(0.5,150.5)"><path class="background" aria-hidden="true" d="M0,0h0v0h0Z" pointer-events="none"/><g><g class="mark-rule role-axis-tick" pointer-events="none"><line transform="translate(33,0)" x2="0" y2="5" stroke="#888" stroke-width="1" opacity="1"/><line transform="translate(100,0)" x2="0" y2="5" stroke="#888" stroke-width="1" opacity="1"/><line transform="translate(167,0)" x2="0" y2="5" stroke="#888" stroke-width="1" opacity="1"/></g><g class="mark-rule role-axis-domain" pointer-events="none"><line transform="translate(0,0)" x2="200" y2="0" stroke="#888" stroke-width="1" opacity="1"/></g></g><path class="foreground" aria-hidden="true" d="" pointer-events="none" display="none"/></g></g><g class="mark-group role-axis" role="graphics-symbol" aria-roledescription="axis" aria-label="Y-axis titled 'Oxygen (μM)' for a linear scale with values from 0 to 11"><g transform="translate(0.5,0.5)"><path class="background" aria-hidden="true" d="M0,0h0v0h0Z" pointer-events="none"/><g><g class="mark-rule role-axis-tick" pointer-events="none"><line transform="translate(0,150)" x2="-5" y2="0" stroke="#888" stroke-width="1" opacity="1"/><line transform="translate(0,123)" x2="-5" y2="0" stroke="#888" stroke-width="1" opacity="1"/><line transform="translate(0,95)" x2="-5" y2="0" stroke="#888" stroke-width="1" opacity="1"/><line transform="translate(0,68)" x2="-5" y2="0" stroke="#888" stroke-width="1" opacity="1"/><line transform="translate(0,41)" x2="-5" y2="0" stroke="#888" stroke-width="1" opacity="1"/><line transform="translate(0,14)" x2="-5" y2="0" stroke="#888" stroke-width="1" opacity="1"/></g><g class="mark-text role-axis-label" pointer-events="none"><text text-anchor="end" transform="translate(-7,154)" font-family="sans-serif" font-size="14px" fill="#000" opacity="1">0</text><text text-anchor="end" transform="translate(-7,126.72727272727272)" font-family="sans-serif" font-size="14px" fill="#000" opacity="1">2</text><text text-anchor="end" transform="translate(-7,99.45454545454545)" font-family="sans-serif" font-size="14px" fill="#000" opacity="1">4</text><text text-anchor="end" transform="translate(-7,72.18181818181819)" font-family="sans-serif" font-size="14px" fill="#000" opacity="1">6</text><text text-anchor="end" transform="translate(-7,44.90909090909091)" font-family="sans-serif" font-size="14px" fill="#000" opacity="1">8</text><text text-anchor="end" transform="translate(-7,17.63636363636364)" font-family="sans-serif" font-size="14px" fill="#000" opacity="1">10</text></g><g class="mark-rule role-axis-domain" pointer-events="none"><line transform="translate(0,150)" x2="0" y2="-150" stroke="#888" stroke-width="1" opacity="1"/></g><g class="mark-text role-axis-title" pointer-events="none"><text text-anchor="middle" transform="translate(-26.572265625,75) rotate(-90) translate(0,-3)" font-family="sans-serif" font-size="14px" font-weight="bold" fill="#000" opacity="1">Oxygen (μM)</text></g></g><path class="foreground" aria-hidden="true" d="" pointer-events="none" display="none"/></g></g><g class="mark-rect role-mark concat_1_layer_0_marks" role="graphics-object" aria-roledescription="rect mark container"><path aria-label="Organism: N. vulgaris Z; Oxygen (μM): 6.76924585607" role="graphics-symbol" aria-roledescription="tick" d="M90,57.19210196271046h20v1h-20Z" fill="black"/><path aria-label="Organism: N. vulgaris MLSD-S22; Oxygen (μM): 6.51576347421" role="graphics-symbol" aria-roledescription="tick" d="M23.33333333333333,60.648679897164435h20v1h-20Z" fill="black"/><path aria-label="Organism: N. winogradskyi Nb-255; Oxygen (μM): 10.0793778635" role="graphics-symbol" aria-roledescription="tick" d="M156.66666666666669,12.053938224447236h20v1h-20Z" fill="black"/></g><g class="mark-symbol role-mark concat_1_layer_1_marks" role="graphics-object" aria-roledescription="symbol mark container"><path aria-label="Organism: N. vulgaris Z; Oxygen (μM): 6.32088177561" role="graphics-symbol" aria-roledescription="point" transform="translate(100,63.806157605335805)" d="M2.739,0A2.739,2.739,0,1,1,-2.739,0A2.739,2.739,0,1,1,2.739,0" stroke="#4c78a8" stroke-width="2" opacity="0.7"/><path aria-label="Organism: N. vulgaris Z; Oxygen (μM): 7.09556078799" role="graphics-symbol" aria-roledescription="point" transform="translate(100,53.24235289101401)" d="M2.739,0A2.739,2.739,0,1,1,-2.739,0A2.739,2.739,0,1,1,2.739,0" stroke="#4c78a8" stroke-width="2" opacity="0.7"/><path aria-label="Organism: N. vulgaris Z; Oxygen (μM): 6.8912950046" role="graphics-symbol" aria-roledescription="point" transform="translate(100,56.027795391781595)" d="M2.739,0A2.739,2.739,0,1,1,-2.739,0A2.739,2.739,0,1,1,2.739,0" stroke="#4c78a8" stroke-width="2" opacity="0.7"/><path aria-label="Organism: N. vulgaris MLSD-S22; Oxygen (μM): 5.8186153796" role="graphics-symbol" aria-roledescription="point" transform="translate(33.33333333333333,70.65524482361725)" d="M2.739,0A2.739,2.739,0,1,1,-2.739,0A2.739,2.739,0,1,1,2.739,0" stroke="#4c78a8" stroke-width="2" opacity="0.7"/><path aria-label="Organism: N. vulgaris MLSD-S22; Oxygen (μM): 8.187714234" role="graphics-symbol" aria-roledescription="point" transform="translate(33.33333333333333,38.34935135455627)" d="M2.739,0A2.739,2.739,0,1,1,-2.739,0A2.739,2.739,0,1,1,2.739,0" stroke="#4c78a8" stroke-width="2" opacity="0.7"/><path aria-label="Organism: N. vulgaris MLSD-S22; Oxygen (μM): 5.54096080902" role="graphics-symbol" aria-roledescription="point" transform="translate(33.33333333333333,74.44144351331981)" d="M2.739,0A2.739,2.739,0,1,1,-2.739,0A2.739,2.739,0,1,1,2.739,0" stroke="#4c78a8" stroke-width="2" opacity="0.7"/><path aria-label="Organism: N. winogradskyi Nb-255; Oxygen (μM): 9.95354050994" role="graphics-symbol" aria-roledescription="point" transform="translate(166.66666666666669,14.269902137173684)" d="M2.739,0A2.739,2.739,0,1,1,-2.739,0A2.739,2.739,0,1,1,2.739,0" stroke="#4c78a8" stroke-width="2" opacity="0.7"/><path aria-label="Organism: N. winogradskyi Nb-255; Oxygen (μM): 9.64291607142" role="graphics-symbol" aria-roledescription="point" transform="translate(166.66666666666669,18.505689935177216)" d="M2.739,0A2.739,2.739,0,1,1,-2.739,0A2.739,2.739,0,1,1,2.739,0" stroke="#4c78a8" stroke-width="2" opacity="0.7"/><path aria-label="Organism: N. winogradskyi Nb-255; Oxygen (μM): 9.7639146119" role="graphics-symbol" aria-roledescription="point" transform="translate(166.66666666666669,16.855709837784676)" d="M2.739,0A2.739,2.739,0,1,1,-2.739,0A2.739,2.739,0,1,1,2.739,0" stroke="#4c78a8" stroke-width="2" opacity="0.7"/><path aria-label="Organism: N. winogradskyi Nb-255; Oxygen (μM): 10.9571402609" role="graphics-symbol" aria-roledescription="point" transform="translate(166.66666666666669,0.5844509876533344)" d="M2.739,0A2.739,2.739,0,1,1,-2.739,0A2.739,2.739,0,1,1,2.739,0" stroke="#4c78a8" stroke-width="2" opacity="0.7"/></g><g class="mark-group role-title"><g transform="translate(100,-21.154161799872497)"><path class="background" aria-hidden="true" d="M0,0h0v0h0Z" pointer-events="none"/><g><g class="mark-text role-title-text" role="graphics-symbol" aria-roledescription="title" aria-label="Title text 'Oxygen Affinity'" pointer-events="none"><text text-anchor="middle" transform="translate(0,10)" font-family="sans-serif" font-size="13px" font-weight="bold" fill="#000" opacity="1">Oxygen Affinity</text></g></g><path class="foreground" aria-hidden="true" d="" pointer-events="none" display="none"/></g></g></g><path class="foreground" aria-hidden="true" d="" display="none"/></g></g><g class="mark-group role-scope concat_2_group" role="graphics-object" aria-roledescription="group mark container"><g transform="translate(0,404)"><path class="background" aria-hidden="true" d="M0.5,0.5h200v150h-200Z" stroke="#ddd"/><g><g class="mark-group role-axis" aria-hidden="true"><g transform="translate(0.5,0.5)"><path class="background" aria-hidden="true" d="M0,0h0v0h0Z" pointer-events="none"/><g><g class="mark-rule role-axis-grid" pointer-events="none"><line transform="translate(0,150)" x2="200" y2="0" stroke="#ddd" stroke-width="1" opacity="1"/><line transform="translate(0,113)" x2="200" y2="0" stroke="#ddd" stroke-width="1" opacity="1"/><line transform="translate(0,75)" x2="200" y2="0" stroke="#ddd" stroke-width="1" opacity="1"/><line transform="translate(0,38)" x2="200" y2="0" stroke="#ddd" stroke-width="1" opacity="1"/><line transform="translate(0,0)" x2="200" y2="0" stroke="#ddd" stroke-width="1" opacity="1"/></g></g><path class="foreground" aria-hidden="true" d="" pointer-events="none" display="none"/></g></g><g class="mark-group role-axis" role="graphics-symbol" aria-roledescription="axis" aria-label="X-axis for a discrete scale with 3 values: N. vulgaris MLSD-S22, N. vulgaris Z, N. winogradskyi Nb-255"><g transform="translate(0.5,150.5)"><path class="background" aria-hidden="true" d="M0,0h0v0h0Z" pointer-events="none"/><g><g class="mark-rule role-axis-tick" pointer-events="none"><line transform="translate(33,0)" x2="0" y2="5" stroke="#888" stroke-width="1" opacity="1"/><line transform="translate(100,0)" x2="0" y2="5" stroke="#888" stroke-width="1" opacity="1"/><line transform="translate(167,0)" x2="0" y2="5" stroke="#888" stroke-width="1" opacity="1"/></g><g class="mark-text role-axis-label" pointer-events="none"><text text-anchor="end" transform="translate(33.33333333333333,7) rotate(315) translate(0,11)" font-family="sans-serif" font-size="14px" font-style="italic" fill="#000" opacity="1">N. vulgaris MLSD-S22</text><text text-anchor="end" transform="translate(100,7) rotate(315) translate(0,11)" font-family="sans-serif" font-size="14px" font-style="italic" fill="#000" opacity="1">N. vulgaris Z</text><text text-anchor="end" transform="translate(166.66666666666669,7) rotate(315) translate(0,11)" font-family="sans-serif" font-size="14px" font-style="italic" fill="#000" opacity="1">N. winogradskyi Nb-255</text></g><g class="mark-rule role-axis-domain" pointer-events="none"><line transform="translate(0,0)" x2="200" y2="0" stroke="#888" stroke-width="1" opacity="1"/></g></g><path class="foreground" aria-hidden="true" d="" pointer-events="none" display="none"/></g></g><g class="mark-group role-axis" role="graphics-symbol" aria-roledescription="axis" aria-label="Y-axis titled 'Vₘₐₓ (fmol-N/cell/hr)' for a linear scale with values from 0 to 4"><g transform="translate(0.5,0.5)"><path class="background" aria-hidden="true" d="M0,0h0v0h0Z" pointer-events="none"/><g><g class="mark-rule role-axis-tick" pointer-events="none"><line transform="translate(0,150)" x2="-5" y2="0" stroke="#888" stroke-width="1" opacity="1"/><line transform="translate(0,113)" x2="-5" y2="0" stroke="#888" stroke-width="1" opacity="1"/><line transform="translate(0,75)" x2="-5" y2="0" stroke="#888" stroke-width="1" opacity="1"/><line transform="translate(0,38)" x2="-5" y2="0" stroke="#888" stroke-width="1" opacity="1"/><line transform="translate(0,0)" x2="-5" y2="0" stroke="#888" stroke-width="1" opacity="1"/></g><g class="mark-text role-axis-label" pointer-events="none"><text text-anchor="end" transform="translate(-7,154)" font-family="sans-serif" font-size="14px" fill="#000" opacity="1">0</text><text text-anchor="end" transform="translate(-7,116.5)" font-family="sans-serif" font-size="14px" fill="#000" opacity="1">1</text><text text-anchor="end" transform="translate(-7,79)" font-family="sans-serif" font-size="14px" fill="#000" opacity="1">2</text><text text-anchor="end" transform="translate(-7,41.5)" font-family="sans-serif" font-size="14px" fill="#000" opacity="1">3</text><text text-anchor="end" transform="translate(-7,4)" font-family="sans-serif" font-size="14px" fill="#000" opacity="1">4</text></g><g class="mark-rule role-axis-domain" pointer-events="none"><line transform="translate(0,150)" x2="0" y2="-150" stroke="#888" stroke-width="1" opacity="1"/></g><g class="mark-text role-axis-title" pointer-events="none"><text text-anchor="middle" transform="translate(-18.7861328125,75) rotate(-90) translate(0,-3)" font-family="sans-serif" font-size="14px" font-weight="bold" fill="#000" opacity="1">Vₘₐₓ (fmol-N/cell/hr)</text></g></g><path class="foreground" aria-hidden="true" d="" pointer-events="none" display="none"/></g></g><g class="mark-rect role-mark concat_2_layer_0_marks" role="graphics-object" aria-roledescription="rect mark container"><path aria-label="Organism: N. vulgaris Z; Vₘₐₓ (fmol-N/cell/hr): 1.62018422861" role="graphics-symbol" aria-roledescription="tick" d="M90,88.74309142714797h20v1h-20Z" fill="black"/><path aria-label="Organism: N. vulgaris MLSD-S22; Vₘₐₓ (fmol-N/cell/hr): 3.20652791662" role="graphics-symbol" aria-roledescription="tick" d="M23.33333333333333,29.25520312691058h20v1h-20Z" fill="black"/><path aria-label="Organism: N. winogradskyi Nb-255; Vₘₐₓ (fmol-N/cell/hr): 3.43248326915" role="graphics-symbol" aria-roledescription="tick" d="M156.66666666666669,20.781877406800227h20v1h-20Z" fill="black"/></g><g class="mark-symbol role-mark concat_2_layer_1_marks" role="graphics-object" aria-roledescription="symbol mark container"><path aria-label="Organism: N. vulgaris Z; Vₘₐₓ (fmol-N/cell/hr): 2.31351001158" role="graphics-symbol" aria-roledescription="point" transform="translate(100,63.243374565718405)" d="M2.739,0A2.739,2.739,0,1,1,-2.739,0A2.739,2.739,0,1,1,2.739,0" stroke="#4c78a8" stroke-width="2" opacity="0.7"/><path aria-label="Organism: N. vulgaris Z; Vₘₐₓ (fmol-N/cell/hr): 2.0533160663" role="graphics-symbol" aria-roledescription="point" transform="translate(100,73.00064751378031)" d="M2.739,0A2.739,2.739,0,1,1,-2.739,0A2.739,2.739,0,1,1,2.739,0" stroke="#4c78a8" stroke-width="2" opacity="0.7"/><path aria-label="Organism: N. vulgaris Z; Vₘₐₓ (fmol-N/cell/hr): 2.0038702927" role="graphics-symbol" aria-roledescription="point" transform="translate(100,74.85486402365208)" d="M2.739,0A2.739,2.739,0,1,1,-2.739,0A2.739,2.739,0,1,1,2.739,0" stroke="#4c78a8" stroke-width="2" opacity="0.7"/><path aria-label="Organism: N. vulgaris Z; Vₘₐₓ (fmol-N/cell/hr): 1.70001916944" role="graphics-symbol" aria-roledescription="point" transform="translate(100,86.24928114591464)" d="M2.739,0A2.739,2.739,0,1,1,-2.739,0A2.739,2.739,0,1,1,2.739,0" stroke="#4c78a8" stroke-width="2" opacity="0.7"/><path aria-label="Organism: N. vulgaris Z; Vₘₐₓ (fmol-N/cell/hr): 0.878095264943" role="graphics-symbol" aria-roledescription="point" transform="translate(100,117.07142756465275)" d="M2.739,0A2.739,2.739,0,1,1,-2.739,0A2.739,2.739,0,1,1,2.739,0" stroke="#4c78a8" stroke-width="2" opacity="0.7"/><path aria-label="Organism: N. vulgaris Z; Vₘₐₓ (fmol-N/cell/hr): 0.772294566689" role="graphics-symbol" aria-roledescription="point" transform="translate(100,121.03895374916961)" d="M2.739,0A2.739,2.739,0,1,1,-2.739,0A2.739,2.739,0,1,1,2.739,0" stroke="#4c78a8" stroke-width="2" opacity="0.7"/><path aria-label="Organism: N. vulgaris MLSD-S22; Vₘₐₓ (fmol-N/cell/hr): 3.04439752287" role="graphics-symbol" aria-roledescription="point" transform="translate(33.33333333333333,35.835092892367996)" d="M2.739,0A2.739,2.739,0,1,1,-2.739,0A2.739,2.739,0,1,1,2.739,0" stroke="#4c78a8" stroke-width="2" opacity="0.7"/><path aria-label="Organism: N. vulgaris MLSD-S22; Vₘₐₓ (fmol-N/cell/hr): 2.71802240061" role="graphics-symbol" aria-roledescription="point" transform="translate(33.33333333333333,48.07415997695566)" d="M2.739,0A2.739,2.739,0,1,1,-2.739,0A2.739,2.739,0,1,1,2.739,0" stroke="#4c78a8" stroke-width="2" opacity="0.7"/><path aria-label="Organism: N. vulgaris MLSD-S22; Vₘₐₓ (fmol-N/cell/hr): 3.36745267193" role="graphics-symbol" aria-roledescription="point" transform="translate(33.33333333333333,23.7205248025103)" d="M2.739,0A2.739,2.739,0,1,1,-2.739,0A2.739,2.739,0,1,1,2.739,0" stroke="#4c78a8" stroke-width="2" opacity="0.7"/><path aria-label="Organism: N. vulgaris MLSD-S22; Vₘₐₓ (fmol-N/cell/hr): 2.82997727733" role="graphics-symbol" aria-roledescription="point" transform="translate(33.33333333333333,43.87585210012497)" d="M2.739,0A2.739,2.739,0,1,1,-2.739,0A2.739,2.739,0,1,1,2.739,0" stroke="#4c78a8" stroke-width="2" opacity="0.7"/><path aria-label="Organism: N. vulgaris MLSD-S22; Vₘₐₓ (fmol-N/cell/hr): 3.80202600634" role="graphics-symbol" aria-roledescription="point" transform="translate(33.33333333333333,7.424024762237086)" d="M2.739,0A2.739,2.739,0,1,1,-2.739,0A2.739,2.739,0,1,1,2.739,0" stroke="#4c78a8" stroke-width="2" opacity="0.7"/><path aria-label="Organism: N. vulgaris MLSD-S22; Vₘₐₓ (fmol-N/cell/hr): 3.47729162061" role="graphics-symbol" aria-roledescription="point" transform="translate(33.33333333333333,19.601564227267538)" d="M2.739,0A2.739,2.739,0,1,1,-2.739,0A2.739,2.739,0,1,1,2.739,0" stroke="#4c78a8" stroke-width="2" opacity="0.7"/><path aria-label="Organism: N. winogradskyi Nb-255; Vₘₐₓ (fmol-N/cell/hr): 3.58258648565" role="graphics-symbol" aria-roledescription="point" transform="translate(166.66666666666669,15.653006788030599)" d="M2.739,0A2.739,2.739,0,1,1,-2.739,0A2.739,2.739,0,1,1,2.739,0" stroke="#4c78a8" stroke-width="2" opacity="0.7"/><path aria-label="Organism: N. winogradskyi Nb-255; Vₘₐₓ (fmol-N/cell/hr): 3.4370866306" role="graphics-symbol" aria-roledescription="point" transform="translate(166.66666666666669,21.10925135242604)" d="M2.739,0A2.739,2.739,0,1,1,-2.739,0A2.739,2.739,0,1,1,2.739,0" stroke="#4c78a8" stroke-width="2" opacity="0.7"/><path aria-label="Organism: N. winogradskyi Nb-255; Vₘₐₓ (fmol-N/cell/hr): 2.9473653723" role="graphics-symbol" aria-roledescription="point" transform="translate(166.66666666666669,39.473798538810065)" d="M2.739,0A2.739,2.739,0,1,1,-2.739,0A2.739,2.739,0,1,1,2.739,0" stroke="#4c78a8" stroke-width="2" opacity="0.7"/><path aria-label="Organism: N. winogradskyi Nb-255; Vₘₐₓ (fmol-N/cell/hr): 2.90915937609" role="graphics-symbol" aria-roledescription="point" transform="translate(166.66666666666669,40.906523396656965)" d="M2.739,0A2.739,2.739,0,1,1,-2.739,0A2.739,2.739,0,1,1,2.739,0" stroke="#4c78a8" stroke-width="2" opacity="0.7"/><path aria-label="Organism: N. winogradskyi Nb-255; Vₘₐₓ (fmol-N/cell/hr): 3.93757772248" role="graphics-symbol" aria-roledescription="point" transform="translate(166.66666666666669,2.3408354071717485)" d="M2.739,0A2.739,2.739,0,1,1,-2.739,0A2.739,2.739,0,1,1,2.739,0" stroke="#4c78a8" stroke-width="2" opacity="0.7"/><path aria-label="Organism: N. winogradskyi Nb-255; Vₘₐₓ (fmol-N/cell/hr): 3.9775446945" role="graphics-symbol" aria-roledescription="point" transform="translate(166.66666666666669,0.8420739561879109)" d="M2.739,0A2.739,2.739,0,1,1,-2.739,0A2.739,2.739,0,1,1,2.739,0" stroke="#4c78a8" stroke-width="2" opacity="0.7"/><path aria-label="Organism: N. winogradskyi Nb-255; Vₘₐₓ (fmol-N/cell/hr): 3.26764786983" role="graphics-symbol" aria-roledescription="point" transform="translate(166.66666666666669,27.46320488153573)" d="M2.739,0A2.739,2.739,0,1,1,-2.739,0A2.739,2.739,0,1,1,2.739,0" stroke="#4c78a8" stroke-width="2" opacity="0.7"/><path aria-label="Organism: N. winogradskyi Nb-255; Vₘₐₓ (fmol-N/cell/hr): 3.40089800177" role="graphics-symbol" aria-roledescription="point" transform="translate(166.66666666666669,22.466324933582754)" d="M2.739,0A2.739,2.739,0,1,1,-2.739,0A2.739,2.739,0,1,1,2.739,0" stroke="#4c78a8" stroke-width="2" opacity="0.7"/></g><g class="mark-group role-title"><g transform="translate(100,-24)"><path class="background" aria-hidden="true" d="M0,0h0v0h0Z" pointer-events="none"/><g><g class="mark-text role-title-text" role="graphics-symbol" aria-roledescription="title" aria-label="Title text 'Max Cell-Specific Rate'" pointer-events="none"><text text-anchor="middle" transform="translate(0,10)" font-family="sans-serif" font-size="13px" font-weight="bold" fill="#000" opacity="1">Max Cell-Specific Rate</text></g></g><path class="foreground" aria-hidden="true" d="" pointer-events="none" display="none"/></g></g></g><path class="foreground" aria-hidden="true" d="" display="none"/></g></g></g><path class="foreground" aria-hidden="true" d="" display="none"/></g></g></g></svg>